<?xml version="1.0" encoding="utf-8"?>
<!-- Generator: Adobe Illustrator 18.1.0, SVG Export Plug-In . SVG Version: 6.00 Build 0)  -->
<svg version="1.1" id="Capa_1" xmlns="http://www.w3.org/2000/svg" xmlns:xlink="http://www.w3.org/1999/xlink" x="0px" y="0px"
	 viewBox="0 0 500 500" enable-background="new 0 0 500 500" xml:space="preserve">
<g opacity="0.3">
	<g>
		<polygon fill="none" stroke="#2D2C2C" stroke-miterlimit="10" points="306.5,145.5 306.5,270.3 282.4,243.5 353.7,353.5 
			353.5,353.5 353.5,351.9 353.5,351.8 353.5,312.4 353.5,312.2 353.5,145.5 		"/>
		<polygon fill="none" stroke="#2D2C2C" stroke-miterlimit="10" points="146,145.5 140.5,145.5 140.5,353.5 185.5,353.5 
			185.5,226.8 213.1,254.1 		"/>
	</g>
	<g>
		<path fill="none" stroke="#2D2C2C" stroke-miterlimit="10" d="M115.7,407.7c-45.3-38.2-74.1-95.3-74.1-159.2
			c0-114.9,93.2-208.1,208.1-208.1c30,0,58.6,6.4,84.3,17.8l21.6-34.6C323.5,8.4,287.6,0,249.7,0C111.8,0,0,111.8,0,249.7
			c0,78.5,36.2,148.6,92.9,194.4L115.7,407.7z"/>
		<path fill="none" stroke="#2D2C2C" stroke-miterlimit="10" d="M405.2,54.3L383.5,89c45.5,38.2,74.4,95.4,74.4,159.4
			c0,114.9-93.2,208.1-208.1,208.1c-30.2,0-58.8-6.4-84.7-18l-22.8,36.6c32.6,15.6,69,24.3,107.5,24.3
			c137.9,0,249.7-111.8,249.7-249.7C499.5,170.6,462.7,100,405.2,54.3z"/>
	</g>
</g>
</svg>
